<?xml version="1.0" standalone="no"?>
<!DOCTYPE svg PUBLIC "-//W3C//DTD SVG 20010904//EN"
 "http://www.w3.org/TR/2001/REC-SVG-20010904/DTD/svg10.dtd">
<svg version="1.0" xmlns="http://www.w3.org/2000/svg"
 width="1280.000000pt" height="1280.000000pt" viewBox="0 0 1280.000000 1280.000000"
 preserveAspectRatio="xMidYMid meet">

<g transform="translate(0.000000,1280.000000) scale(0.100000,-0.100000)"
fill="#000000" stroke="none">
<path d="M0 6400 l0 -6400 6400 0 6400 0 0 6400 0 6400 -6400 0 -6400 0 0
-6400z m5596 2118 c52 -51 94 -100 94 -109 0 -8 -12 -26 -26 -40 -82 -76 -183
-252 -219 -384 -25 -92 -31 -311 -11 -410 37 -183 140 -306 295 -351 71 -20
169 -15 234 14 100 44 201 194 255 377 129 437 170 547 243 658 94 141 222
230 377 262 323 66 622 -94 767 -410 62 -135 79 -214 72 -330 -13 -197 -49
-346 -136 -554 -36 -87 -49 -111 -206 -381 -65 -113 -127 -221 -138 -240 -11
-19 -54 -96 -97 -170 -96 -168 -114 -198 -346 -605 l-189 -330 -3 -448 -3
-448 -157 3 -157 3 -5 445 -5 446 -89 154 c-49 85 -133 234 -188 330 -55 96
-133 231 -172 300 -40 69 -97 168 -126 220 -29 52 -102 178 -160 280 -59 102
-121 210 -137 240 -17 30 -45 80 -62 110 -98 174 -122 224 -146 305 -49 169
-52 421 -6 596 26 103 83 237 139 332 51 86 175 227 199 227 9 0 58 -42 109
-92z m-928 -4698 c57 -11 124 -40 129 -56 2 -6 -7 -18 -20 -27 -23 -15 -29
-14 -76 4 -104 39 -260 20 -277 -34 -18 -58 21 -84 181 -118 119 -25 161 -41
197 -76 49 -47 44 -106 -14 -160 -78 -74 -306 -84 -437 -20 -25 12 -46 27 -48
32 -2 6 10 18 26 28 28 16 31 16 87 -10 110 -50 294 -31 310 32 16 62 -18 85
-166 115 -133 27 -208 62 -234 111 -17 32 -18 40 -6 69 40 95 184 141 348 110z
m795 0 c123 -20 257 -107 287 -186 15 -39 12 -122 -6 -160 -9 -18 -36 -52 -61
-74 -86 -80 -218 -118 -373 -107 -213 16 -360 124 -360 267 0 180 246 304 513
260z m589 -227 l3 -228 193 -3 192 -2 0 -30 0 -30 -245 0 -245 0 0 260 0 260
50 0 50 0 2 -227z m564 97 c60 -71 112 -130 116 -130 4 0 57 59 118 130 l111
130 50 0 c27 0 49 -4 49 -8 0 -5 -63 -82 -140 -172 l-140 -164 0 -88 0 -89
-47 3 -48 3 -3 89 -3 90 -47 55 c-26 31 -57 67 -68 81 -12 14 -54 62 -93 108
-39 46 -71 85 -71 88 0 2 24 4 54 4 l54 0 108 -130z m842 103 c32 -48 292
-480 292 -487 0 -4 -23 -6 -51 -4 l-52 3 -40 68 -40 67 -178 0 -178 0 -42 -70
-41 -70 -49 0 c-27 0 -49 4 -49 8 0 4 34 64 76 133 42 68 104 169 137 224 97
161 91 155 147 155 42 0 51 -4 68 -27z m908 0 c64 -34 94 -76 94 -130 0 -58
-27 -96 -92 -129 -27 -14 -48 -29 -46 -34 2 -5 38 -49 81 -98 42 -50 77 -93
77 -96 0 -3 -24 -6 -54 -6 l-53 0 -84 100 -84 100 -102 0 -103 0 0 -100 0
-100 -50 0 -50 0 0 261 0 260 213 -3 c196 -3 215 -5 253 -25z"/>
<path d="M6898 8217 c-56 -16 -119 -58 -160 -106 -40 -48 -113 -200 -137 -286
-85 -305 -132 -440 -197 -573 -110 -222 -273 -340 -498 -358 -47 -4 -86 -11
-86 -15 0 -5 13 -30 29 -56 15 -27 144 -252 286 -501 141 -249 262 -451 268
-449 5 1 66 100 134 218 68 117 155 264 193 324 37 61 109 178 158 262 50 84
109 179 131 212 161 237 320 544 346 666 20 97 20 269 -1 348 -48 187 -184
312 -352 323 -39 2 -86 -2 -114 -9z"/>
<path d="M5205 3740 c-64 -25 -124 -74 -141 -116 -42 -101 13 -194 143 -244
45 -18 79 -23 153 -23 84 0 104 4 158 28 41 18 77 44 103 73 34 39 39 51 39
94 0 78 -39 132 -130 179 -38 20 -63 24 -160 26 -96 3 -123 0 -165 -17z"/>
<path d="M7373 3708 c-23 -30 -113 -187 -113 -197 0 -7 41 -11 130 -11 72 0
130 4 130 8 0 14 -120 212 -129 212 -5 0 -13 -6 -18 -12z"/>
<path d="M8002 3663 l3 -98 135 0 c143 1 187 12 210 54 17 33 12 76 -12 98
-38 34 -85 43 -215 43 l-124 0 3 -97z"/>
</g>
</svg>
