<?xml version="1.0" standalone="no"?>
<!DOCTYPE svg PUBLIC "-//W3C//DTD SVG 20010904//EN"
 "http://www.w3.org/TR/2001/REC-SVG-20010904/DTD/svg10.dtd">
<svg version="1.0" xmlns="http://www.w3.org/2000/svg"
 width="1280.000000pt" height="1280.000000pt" viewBox="0 0 1280.000000 1280.000000"
 preserveAspectRatio="xMidYMid meet">

<g transform="translate(0.000000,1280.000000) scale(0.100000,-0.100000)"
fill="#000000" stroke="none">
<path d="M5403 8536 c-120 -131 -221 -332 -264 -528 -30 -136 -30 -380 0 -497
42 -160 29 -135 541 -1026 32 -55 67 -116 77 -135 19 -33 197 -344 392 -685
l86 -150 5 -445 5 -445 157 -3 157 -3 3 448 3 448 104 180 c57 99 159 277 226
395 67 118 218 382 335 585 306 533 296 513 376 734 37 103 74 318 74 431 0
120 -65 300 -155 425 -233 327 -705 383 -975 116 -111 -110 -179 -249 -270
-557 -22 -76 -50 -170 -62 -209 -33 -113 -104 -250 -159 -306 -84 -87 -201
-118 -322 -86 -157 41 -264 164 -302 345 -19 95 -19 272 1 370 29 144 108 299
207 408 l59 64 -99 100 c-54 55 -105 100 -115 100 -9 0 -47 -34 -85 -74z
m1729 -339 c163 -72 248 -232 248 -464 0 -149 -20 -230 -95 -385 -61 -128
-193 -355 -259 -448 -18 -25 -58 -90 -91 -145 -32 -55 -108 -181 -169 -280
-61 -99 -165 -274 -231 -389 -67 -116 -126 -211 -132 -213 -6 -2 -127 200
-268 449 -142 249 -271 474 -286 501 -16 26 -29 51 -29 56 0 4 38 11 85 15
146 11 267 67 370 170 117 117 190 283 310 701 80 280 171 412 313 452 66 18
166 10 234 -20z"/>
<path d="M4473 3820 c-110 -23 -181 -102 -153 -169 25 -62 75 -86 240 -120
112 -24 163 -46 168 -75 13 -67 -43 -100 -169 -100 -71 1 -95 5 -144 28 -58
26 -60 26 -84 9 -33 -25 -30 -34 20 -60 132 -66 365 -52 447 27 50 48 51 108
4 153 -37 35 -78 51 -202 77 -104 22 -158 42 -172 64 -15 22 -8 53 18 77 22
21 37 24 113 27 73 3 96 0 139 -18 48 -21 51 -21 76 -5 39 26 32 41 -31 65
-65 24 -202 35 -270 20z"/>
<path d="M5225 3816 c-169 -40 -275 -137 -275 -253 0 -169 200 -288 456 -270
144 10 262 67 322 156 28 40 32 55 32 111 0 68 -8 87 -59 144 -35 38 -84 68
-156 95 -77 29 -234 37 -320 17z m305 -85 c92 -47 130 -101 130 -180 0 -45 -5
-56 -37 -92 -74 -82 -202 -120 -336 -99 -211 32 -304 193 -183 315 68 67 127
86 266 82 97 -2 122 -6 160 -26z"/>
<path d="M5950 3560 l0 -260 245 0 245 0 0 30 0 30 -192 2 -193 3 -3 228 -2
227 -50 0 -50 0 0 -260z"/>
<path d="M6406 3808 c7 -12 162 -197 174 -208 3 -3 27 -30 52 -61 l47 -55 3
-90 3 -89 48 -3 47 -3 0 81 c0 45 5 90 10 101 6 11 69 87 140 171 72 83 130
155 130 159 0 5 -22 9 -49 9 l-50 0 -111 -130 c-61 -71 -114 -130 -118 -130
-4 0 -56 59 -116 130 l-108 130 -55 0 c-41 0 -52 -3 -47 -12z"/>
<path d="M7297 3753 c-66 -103 -256 -418 -263 -437 -5 -13 2 -16 44 -16 l49 0
38 63 c21 34 43 65 49 69 20 14 344 9 356 -4 6 -7 27 -39 46 -70 35 -58 36
-58 85 -58 27 0 49 3 49 8 0 4 -69 120 -153 257 l-153 250 -52 3 -51 3 -44
-68z m163 -135 c33 -56 60 -106 60 -110 0 -4 -58 -8 -130 -8 -77 0 -130 4
-130 10 0 9 93 173 113 198 5 6 13 12 18 12 5 0 36 -46 69 -102z"/>
<path d="M7900 3560 l0 -260 50 0 50 0 0 100 0 100 103 0 103 0 83 -100 82
-100 55 0 c30 0 54 3 54 6 0 3 -36 48 -80 99 -44 51 -80 95 -80 98 0 3 21 16
46 29 119 59 130 173 24 245 -53 37 -95 43 -297 43 l-193 0 0 -260z m400 178
c76 -39 80 -111 10 -152 -31 -18 -52 -21 -170 -21 l-135 0 -3 84 c-2 46 -1 90
2 98 4 10 35 13 129 13 107 0 128 -3 167 -22z"/>
</g>
</svg>
